<?xml version="1.0" encoding="UTF-8" standalone="no"?>
<!-- Generator: Adobe Illustrator 19.0.0, SVG Export Plug-In . SVG Version: 6.00 Build 0)  -->

<svg
   xmlns:dc="http://purl.org/dc/elements/1.1/"
   xmlns:cc="http://creativecommons.org/ns#"
   xmlns:rdf="http://www.w3.org/1999/02/22-rdf-syntax-ns#"
   xmlns:svg="http://www.w3.org/2000/svg"
   xmlns="http://www.w3.org/2000/svg"
   xmlns:sodipodi="http://sodipodi.sourceforge.net/DTD/sodipodi-0.dtd"
   xmlns:inkscape="http://www.inkscape.org/namespaces/inkscape"
   version="1.1"
   id="Layer_1"
   x="0px"
   y="0px"
   viewBox="0 0 511.999 511.999"
   style="enable-background:new 0 0 511.999 511.999;"
   xml:space="preserve"
   sodipodi:docname="gitlight.svg"
   inkscape:version="0.92.1 r15371"><metadata
     id="metadata3962"><rdf:RDF><cc:Work
         rdf:about=""><dc:format>image/svg+xml</dc:format><dc:type
           rdf:resource="http://purl.org/dc/dcmitype/StillImage" /><dc:title></dc:title></cc:Work></rdf:RDF></metadata><defs
     id="defs3960" /><sodipodi:namedview
     pagecolor="#ffffff"
     bordercolor="#666666"
     borderopacity="1"
     objecttolerance="10"
     gridtolerance="10"
     guidetolerance="10"
     inkscape:pageopacity="0"
     inkscape:pageshadow="2"
     inkscape:window-width="1262"
     inkscape:window-height="1012"
     id="namedview3958"
     showgrid="false"
     inkscape:zoom="1.6"
     inkscape:cx="279.68373"
     inkscape:cy="261.88127"
     inkscape:window-x="381"
     inkscape:window-y="45"
     inkscape:window-maximized="0"
     inkscape:current-layer="Layer_1" /><path
     id="SVGCleanerId_0"
     style="fill:#FFC843;"
     d="M313.899,329.186c0-47.072,86.086-73.839,86.086-177.212  c0-79.521-64.464-143.987-143.986-143.987S112.014,72.453,112.014,151.974c0,103.373,86.089,130.14,86.089,177.212H313.899z" /><g
     id="g3897"><path
       id="SVGCleanerId_0_1_"
       style="fill:#FFC843;"
       d="M313.899,329.186c0-47.072,86.086-73.839,86.086-177.212   c0-79.521-64.464-143.987-143.986-143.987S112.014,72.453,112.014,151.974c0,103.373,86.089,130.14,86.089,177.212H313.899z" /></g><path
     style="opacity:0.1;enable-background:new    ;"
     d="M192.907,309.139c3.265,6.445,5.195,13.02,5.195,20.047h115.796  c0-7.028,1.93-13.603,5.195-20.047H192.907z"
     id="path3907" /><ellipse
     style="fill:#5C6670;"
     cx="256.003"
     cy="484.383"
     id="circle3909"
     r="19.631" /><path
     style="opacity:0.1;enable-background:new    ;"
     d="M255.999,464.75c-10.844,0-19.631,8.789-19.631,19.631  c0,0.869,0.076,1.719,0.185,2.558c6.132,1.964,12.663,3.033,19.446,3.033c6.783,0,13.314-1.07,19.446-3.033  c0.11-0.839,0.185-1.689,0.185-2.558C275.63,473.539,266.843,464.75,255.999,464.75z"
     id="path3911" /><circle
     style="fill:#333E48;"
     cx="256.003"
     cy="426.258"
     r="58.125"
     id="circle3913" /><path
     style="opacity:0.1;enable-background:new    ;"
     d="M255.999,368.134c-32.102,0-58.124,26.024-58.124,58.124  c0,4.221,0.461,8.332,1.316,12.298h113.615c0.856-3.966,1.316-8.077,1.316-12.298C314.123,394.157,288.099,368.134,255.999,368.134z  "
     id="path3915" /><path
     style="fill:#5C6670;"
     d="M338.428,406.592c0,10.816-8.85,19.665-19.664,19.665H193.237c-10.816,0-19.665-8.849-19.665-19.665  v-61.087c0-10.816,8.85-19.665,19.665-19.665h125.527c10.815,0,19.664,8.85,19.664,19.665V406.592z"
     id="path3917" /><g
     id="g3923"><rect
       x="173.575"
       y="349.23"
       style="fill:#333E48;"
       width="164.855"
       height="15.974"
       id="rect3919" /><rect
       x="173.575"
       y="386.897"
       style="fill:#333E48;"
       width="164.855"
       height="15.974"
       id="rect3921" /></g><path
     style="fill:#1E252B;"
     d="M407.972,151.974C407.972,68.175,339.797,0,255.999,0S104.027,68.175,104.027,151.974  c0,64.767,31.855,100.484,57.45,129.181c12.37,13.87,22.626,25.369,26.724,37.166c-12.85,2.376-22.615,13.658-22.615,27.184v61.087  c0,14.279,10.88,26.065,24.784,27.503c2.76,23.244,17.617,42.817,38.09,52.239c1.006,14.32,12.97,25.665,27.541,25.665  s26.534-11.345,27.541-25.665c20.472-9.423,35.33-28.995,38.09-52.239c13.906-1.439,24.785-13.225,24.785-27.503v-61.087  c0-13.526-9.765-24.807-22.612-27.184c4.097-11.796,14.353-23.297,26.723-37.167C376.12,252.456,407.972,216.74,407.972,151.974z   M255.999,496.026c-3.631,0-6.88-1.674-9.017-4.289c2.951,0.404,5.957,0.63,9.017,0.63s6.066-0.227,9.017-0.63  C262.879,494.353,259.631,496.026,255.999,496.026z M255.999,476.394c-24.927,0-45.656-18.287-49.494-42.15h98.986  C301.655,458.106,280.927,476.394,255.999,476.394z M330.441,345.505v61.087c0,6.439-5.238,11.678-11.677,11.678H193.237  c-6.44,0-11.678-5.238-11.678-11.678v-61.087c0-6.439,5.239-11.678,11.678-11.678h125.527  C325.202,333.827,330.441,339.066,330.441,345.505z M307.296,317.853H204.707c-4.111-16.834-16.844-31.114-31.309-47.331  c-23.79-26.674-53.398-59.869-53.398-118.548c0-74.991,61.009-136,135.999-136s135.999,61.009,135.999,136  c0,58.678-29.607,91.874-53.396,118.548C324.139,286.739,311.406,301.019,307.296,317.853z"
     id="path3925" /><g
     id="g3927" /><g
     id="g3929" /><g
     id="g3931" /><g
     id="g3933" /><g
     id="g3935" /><g
     id="g3937" /><g
     id="g3939" /><g
     id="g3941" /><g
     id="g3943" /><g
     id="g3945" /><g
     id="g3947" /><g
     id="g3949" /><g
     id="g3951" /><g
     id="g3953" /><g
     id="g3955" /><g
     transform="matrix(3.9666473,0,0,3.9666473,87.874237,-30.965278)"
     id="XMLID_1_"><path
       inkscape:connector-curvature="0"
       id="XMLID_7_"
       class="st0"
       d="m 66.6,43.4 c -3.4,0 -6.4,1.9 -8,4.7 V 48 C 53.7,47.9 48,46.4 44,43.3 40.5,40.6 37,35.8 35.2,32 c 2.1,-1.7 3.5,-4.3 3.5,-7.2 0,-5.1 -4.1,-9.3 -9.3,-9.3 -5.2,0 -9.3,4.2 -9.3,9.3 0,3.4 1.9,6.4 4.6,8 v 30.4 c -2.7,1.6 -4.6,4.6 -4.6,8 0,5.1 4.1,9.3 9.3,9.3 5.2,0 9.3,-4.1 9.3,-9.3 0,-3.4 -1.9,-6.4 -4.6,-8 V 46.5 c 3.1,3.2 6.7,5.9 10.7,7.8 4,1.9 9.4,2.9 13.8,3 v -0.1 c 1.7,2.8 4.6,4.7 8,4.7 5.1,0 9.3,-4.1 9.3,-9.3 0,-5.2 -4.2,-9.2 -9.3,-9.2 z M 35,71.2 c 0,3.1 -2.6,5.6 -5.6,5.6 -3,0 -5.6,-2.6 -5.6,-5.6 0,-3 2.6,-5.6 5.6,-5.6 3,0 5.6,2.6 5.6,5.6 z M 29.4,30.4 c -3.1,0 -5.6,-2.6 -5.6,-5.6 0,-3 2.6,-5.6 5.6,-5.6 3,0 5.6,2.6 5.6,5.6 0,3 -2.5,5.6 -5.6,5.6 z m 37.2,27.8 c -3.1,0 -5.6,-2.6 -5.6,-5.6 0,-3 2.6,-5.6 5.6,-5.6 3,0 5.6,2.6 5.6,5.6 -0.1,3.1 -2.6,5.6 -5.6,5.6 z" /></g></svg>